<svg xmlns="http://www.w3.org/2000/svg" viewBox="0 0 512 512"><path d="M467 91h-90.188L360.23 41.257A15 15 0 0 0 346 31H166a14.999 14.999 0 0 0-14.23 10.257L135.188 91H45c-24.813 0-45 20.187-45 45v90a15.002 15.002 0 0 0 8.321 13.431L15 242.752V436c0 24.813 20.187 45 45 45h392c24.813 0 45-20.187 45-45V242.752l6.679-3.321A15.002 15.002 0 0 0 512 226v-90c0-24.813-20.187-45-45-45zM176.812 61h158.377l10 30H166.812l10-30zM467 436c0 8.271-6.729 15-15 15H60c-8.271 0-15-6.729-15-15V257.669l137.097 68.17C186.598 345.934 204.567 361 226 361h60c21.433 0 39.402-15.066 43.903-35.161L467 257.669V436zM211 316c0-8.271 6.729-15 15-15h60c8.271 0 15 6.729 15 15s-6.729 15-15 15h-60c-8.271 0-15-6.729-15-15zm271-99.293L325.528 294.51C317.889 280.516 303.036 271 286 271h-60c-17.035 0-31.889 9.516-39.528 23.51L30 216.707V136c0-8.271 6.729-15 15-15h422c8.271 0 15 6.729 15 15v80.707z"/></svg>