<svg xmlns="http://www.w3.org/2000/svg" viewBox="0 0 328 328"><path d="M249.6 5.2C246.8 2.4 242.4.4 238 .4h-24.8c-3.2 0-5.6 2.4-6.4 5.2l-4.4 26.8-4 25.2-4-25.2L190 6c-.4-3.2-3.2-6-6.4-6H142c-2.8 0-5.6 2-6 5.2l-2.4 12-4 19.6-4-19.6-2.4-11.6c-.4-3.2-3.2-5.6-6.4-5.6H90.4c-4.4 0-8 1.6-11.2 4.4l-.4.4C76 7.6 74 12 74 16.4V164h-.4c0 5.6 2.4 10.8 6 14.4 3.6 3.6 8.8 6 14.4 6h47.6l-14 106c0 1.6-.4 2.8-.4 4 0 8.8 4 16.4 10 22.4 5.6 5.6 13.6 9.6 22 10.8 1.6.4 3.2.4 4.8.4 1.6 0 3.2 0 4.8-.4 8.4-1.2 16.4-5.2 22-10.8 6-6 10-13.6 10-22.4 0-1.2 0-2.4-.4-4l-14-106H234c5.6 0 10.8-2.4 14.4-6 3.6-3.6 6-8.8 6-14.4V16.8c0-4.4-2-8.4-4.8-11.6zM188 292v2.4c0 5.2-2.4 9.6-6 13.2-4 4-9.2 6.4-14.8 7.2h-6.4c-5.6-.8-10.8-3.2-14.8-7.2-3.6-3.6-6-8.4-6-13.6v-2.4L154.4 184h19.2L188 292zm51.2-122.4c-1.2 1.2-3.2 2.4-5.6 2.4H94c-2 0-4-.8-5.6-2.4-1.2-1.2-2.4-3.2-2.4-5.6v-12.8h155.2V164h.4c0 2-.8 4-2.4 5.6zm2.8-30.8H86.4v-122c0-.8.4-2 1.2-2.4.8-.4 1.6-.8 2.4-.8h21.2l1.6 6.8 10.4 48.8c.8 3.6 4 5.6 7.6 4.8 2.4-.4 4.4-2.4 4.8-4.8l10-49.2 1.6-6.8h31.6l3.6 21.6 10.4 63.6c.4 3.6 4 5.6 7.2 5.2 2.8-.4 4.8-2.8 5.2-5.2l10.4-63.2 3.6-21.6h19.2c.8 0 2 .4 2.4 1.2.8.8 1.2 1.6 1.2 2.4v121.6z"/><circle cx="164" cy="290.8" r="9.2"/></svg>