<svg xmlns="http://www.w3.org/2000/svg" viewBox="0 0 337.2 337.2"><path d="M332.8 170.2c2.8-2.8 4.4-6.4 4.4-10.4v-28.4c0-4-1.6-8-4.4-10.4-2.8-2.4-6.8-4.4-10.8-4.4h-32c0-.8.4-1.6.4-2.4V85.8c0-4-1.6-8-4.4-10.4-2.8-2.8-6.4-4.4-10.4-4.4h-32c0-.8.4-1.6.4-2.4v-28c0-4-1.6-8-4.4-10.4-2.8-2.8-6.4-4.4-10.4-4.4H154c-3.2 0-6 1.2-8.4 3.2-2.4-1.6-5.2-3.2-8.4-3.2h-76c-4 0-8 1.6-10.4 4.4-2.8 2.8-4.4 6.4-4.4 10.4V69c0 .8.4 1.6.4 2.4h-32c-4 0-7.6 1.6-10 4l-.4.4C1.6 78.6 0 82.2 0 86.2v28.4c0 4 1.6 8 4.4 10.4 2.8 2.8 6.4 4.4 10.4 4.4h32c0 .8-.4 1.6-.4 2.4v28.4c0 .8.4 1.6.4 2.4h-32c-4 0-7.6 1.6-10 4l-.4.4c-2.8 2.8-4.4 6.4-4.4 10.4v28.4c0 4 1.6 8 4.4 10.4 2.8 2.8 6.4 4.4 10.4 4.4h32c0 .8-.4 1.6-.4 2.4v28.4c0 .8.4 1.6.4 2.4h-32c-4 0-7.6 1.6-10 4l-.4.4C1.6 261 0 264.6 0 268.6v28c0 4 1.6 8 4.4 10.4 2.8 2.8 6.4 4.4 10.4 4.4h75.6c3.2 0 6-1.2 8.8-3.2 2.4 1.6 5.2 3.2 8.4 3.2h75.6c3.2 0 6-1.2 8.8-3.2 2.4 1.6 5.2 3.2 8.4 3.2H276c4 0 8-1.6 10.4-4.4 2.8-2.8 4.4-6.4 4.4-10.4v-28.4c0-.8-.4-1.6-.4-2.4h32c4 0 8-1.6 10.4-4.4 2.8-2.8 4.4-6.4 4.4-10.4v-28.4c0-4-1.6-8-4.4-10.4-2.8-2.8-6.4-4.4-10.4-4.4h-32c0-.8.4-1.6.4-2.4V177c0-.8-.4-1.6-.4-2.4h32c4 0 8-1.6 10.4-4.4zm-57.2-86.4c.8 0 1.2.4 1.6.8.4.4.8.8.8 1.6v28.4c0 .8-.4 1.2-.8 1.6-.4.4-.8.4-1.6.4H200c-.8 0-1.2-.4-1.6-.8-.4-.4-.8-.8-.8-1.6V85.8c0-.8.4-1.2.8-1.6.4-.4.8-.4 1.6-.4h75.6zm-44 76.4c0 .8-.4 1.2-.8 1.6-.4.4-.8.8-1.6.8h-75.6c-.8 0-1.2-.4-1.6-.8-.4-.4-.8-.8-.8-1.6v-28.4c0-.8.4-1.2.8-1.6.4-.4.8-.8 1.6-.8h75.6c.8 0 1.2.4 1.6.8.4.4.8.8.8 1.6v28.4zm14.8 15.2h29.2c.8-.4 1.2 0 1.6.4.4.4.8.8.8 1.6v28.4c0 .8-.4 1.2-.8 1.6-.4.4-.8.8-1.6.8H200c-.8 0-1.2-.4-1.6-.8-.4-.4-.8-.8-.8-1.6v-28.4c0-.8.4-1.2.8-1.6.4-.4.8-.4 1.6-.4h46.4zM104.8 177c0-.8.4-1.2.8-1.6.4-.4.8-.4 1.6-.4h75.6c.8 0 1.2.4 1.6.8.4.4.8.8.8 1.6v28c0 .8-.4 1.2-.8 1.6-.4.4-.8.8-1.6.8h-75.6c-.8 0-1.2-.4-1.6-.8-.4-.4-.8-.8-.8-1.6V177zm-14.4-14.8H61.2c-.8 0-1.2-.4-1.6-.8-.4-.4-.8-.8-.8-1.6v-28.4c0-.8.4-1.2.8-1.6.4-.4.8-.8 1.6-.8h75.6c.8 0 1.2.4 1.6.8.4.4.8.8.8 1.6v28.4c0 .8-.4 1.2-.8 1.6-.4.4-.8.8-1.6.8H90.4zm61.2-121.6c0-.4.4-1.2.8-1.6.4-.4.8-.8 1.6-.8h75.6c.8 0 1.2.4 1.6.8.4.4.8.8.8 1.6V69c0 .8-.4 1.2-.8 1.6-.4.4-.8.8-1.6.8H154c-.8 0-1.2-.4-1.6-.8s-.8-.8-.8-1.6V40.6zm2.4 43.6h29.2c.8 0 1.2.4 1.6.8.4.4.8.8.8 1.6V115c0 .8-.4 1.2-.8 1.6h-77.6c-.4 0-.8 0-1.2-.4-.4-.4-.8-.8-.8-1.6V86.2c0-.8.4-1.2.8-1.6.4-.4.8-.4 1.6-.4H154zM58.8 40.6c0-.8.4-1.2.8-1.6.4-.4.8-.8 1.6-.8h75.6c.8 0 1.2.4 1.6.8.4.4.8.8.8 1.6V69c0 .8-.4 1.2-.8 1.6-.4.4-.8.8-1.6.8H61.2c-.8 0-1.2-.4-1.6-.8-.4-.4-.8-.8-.8-1.6V40.6zm-44 76c-.8 0-1.2 0-1.6-.4-.4-.4-.8-.8-.8-1.6V86.2c0-.8.4-1.2.8-1.6.4-.4.8-.4 1.6-.4h75.6c.8 0 1.2.4 1.6.8.4.4.8.8.8 1.6V115c0 .8-.4 1.2-.8 1.6H14.8zm0 91.2c-.8 0-1.2-.4-1.6-.8-.4-.4-.8-.8-.8-1.6V177c0-.8.4-1.2.8-1.6.4-.4.8-.4 1.6-.4h75.6c.8 0 1.2.4 1.6.8.4.4.4.8.4 1.2v28.4c0 .8-.4 1.2-.8 1.6-.4.4-.8.8-1.6.8H14.8zm78 88.8c-.4.4-.4 1.2-.8 1.6-.4.4-.8.8-1.6.8H14.8c-.8 0-1.2-.4-1.6-.8-.4-.4-.8-1.2-.8-1.6v-28.4c0-.8.4-1.2.8-1.6.4-.4.8-.4 1.6-.4h75.6c.8 0 1.2.4 1.6.8.4.4.8.8.8 1.6v28zm-2.4-42.8H61.2c-.8-.4-1.2-.8-1.6-1.2-.4-.4-.8-.8-.8-1.6v-28.4c0-.8.4-1.2.8-1.6.4-.4.8-.4 1.6-.4h75.6c.8 0 1.2.4 1.6.8.4.4.8.8.8 1.6v28.4c0 .8-.4 1.2-.8 1.6-.4.4-.8.8-1.6.8H90.4zm95.2 42.8c-.4.4-.8 1.2-1.2 1.6-.4.4-.8.8-1.6.8h-75.2c-.8 0-1.2-.4-1.6-.8-.4-.4-.8-.8-.8-1.6v-28.4c0-.8.4-1.2.8-1.6.4-.4.8-.4 1.6-.4h75.6c.8 0 1.2.4 1.6.8.4.4.8.8.8 1.6v28zm-2.8-43.2h-29.2c-.8 0-1.2-.4-1.6-.8-.4-.4-.8-.8-.8-1.6v-28.4c0-.8.4-1.2.8-1.6.4-.4.8-.8 1.6-.8h75.6c.8.4 1.2.4 1.6.8.4.4.8.8.8 1.6V251c0 .8-.4 1.2-.8 1.6-.4.4-.8.8-1.6.8h-46.4zm95.2 43.2c0 .8-.4 1.2-.8 1.6-.4.4-.8.8-1.6.8H200c-.8 0-1.2-.4-1.6-.8-.4-.4-.8-.8-.8-1.6v-28.4c0-.8.4-1.2.8-1.6.4-.4.8-.4 1.6-.4h75.6c.8-.4 1.2 0 1.6.4.4.4.8.8.8 1.6v28.4zm44.4-76.4c.4.4.8.4 1.2.8.4.4.8.8.8 1.6V251c0 .8-.4 1.2-.8 1.6-.4.4-.8.8-1.6.8h-75.6c-.8 0-1.2-.4-1.6-.8-.4-.4-.4-1.2-.4-1.6v-28.4c0-.8.4-1.2.8-1.6.4-.4.8-.8 1.6-.8h75.6zm-46.8-57.6h-29.2c-.8 0-1.2-.4-1.6-.8-.4-.8-.4-1.2-.4-1.6v-28.4c0-.8.4-1.2.8-1.6.4-.4.8-.8 1.6-.8h75.6c.8 0 1.2.4 1.6.8.4.4.8.8.8 1.6v28.4h-.4c0 .8-.4 1.2-.8 1.6-.4.4-.8.8-1.6.8h-46.4z"/></svg>