<svg xmlns="http://www.w3.org/2000/svg" viewBox="0 0 349.2 349.2"><path d="M334 48.8c-9.2-9.2-22.4-15.2-36.4-15.2h-136c-3.6 0-6.4 2.8-6.4 6.4v1.2h-4.4c-11.2 0-21.6 4.8-28.8 12-2.8 2.8-5.2 6.4-7.2 10H93.6c-8.4 0-16 3.6-21.6 8.8-4 4-6.4 9.6-7.6 15.2h-58C2.8 87.2 0 90 0 93.6c0 3.6 2.8 6.4 6.4 6.4h58c1.2 5.6 3.6 11.2 7.6 15.2l.4.4c5.6 5.2 12.8 8.8 21.2 8.8h21.2c2 3.6 4 6.8 7.2 10 7.6 7.6 17.6 12 28.8 12h4.4v1.2c0 3.6 2.8 6.4 6.4 6.4H244v84.8c-9.2 2.4-17.6 7.2-24.4 13.6-9.6 9.6-15.2 22.4-15.2 36.8v20c0 3.6 2.8 6.4 6.4 6.4h98c3.6 0 6.4-2.8 6.4-6.4V258c0-5.6-2.4-10.8-6-14.8l-.4-.4c-1.6-1.6-3.2-2.4-5.2-3.6v-86.4c11.6-1.6 22.4-6.8 30.4-14.8 9.6-9.6 15.2-22.4 15.2-36.8V85.6c0-14.4-6-27.2-15.2-36.8zm-223.6 62.8H93.6c-4.8 0-9.2-2-12.4-4.8l-.4-.4c-3.2-3.2-5.2-7.6-5.2-12.8 0-4.8 2-9.2 5.2-12.8 3.2-3.2 7.6-5.2 12.8-5.2h16.8c-.4 2-.4 4.4-.4 6.4v22.8c0 2.4 0 4.4.4 6.8zm44.8 21.6h-4.4c-7.6 0-14.8-3.2-20-8.4-5.2-5.2-8.4-12.4-8.4-20V82c0-7.6 3.2-14.8 8.4-20 5.2-5.2 12.4-8.4 20-8.4h4.4v79.6zm147.6 169.2h-85.6v-7.6h85.6v7.6zm.4-20h-85.6c1.6-8.4 5.2-16 11.2-21.6 7.2-7.2 16.8-11.6 28-11.6H294c2.4 0 4.8 1.2 6.4 2.8l.4.4c1.6 1.6 2.4 3.6 2.4 6v24zm-46.4-46v-83.2h34.4v83.2h-34.4zm80.4-135.2h-.4c0 10.8-4.4 20.8-11.6 28s-16.8 11.6-28 11.6H168V46.4h129.6c10.8 0 20.8 4.4 28 11.6s11.6 16.8 11.6 28v15.2z"/><path d="M296.4 69.6h-63.2c-3.6 0-6.4 2.8-6.4 6.4 0 3.6 2.8 6.4 6.4 6.4h63.2c3.6 0 6.4-2.8 6.4-6.4s-2.8-6.4-6.4-6.4zm0 35.6h-63.2c-3.6 0-6.4 2.8-6.4 6.4 0 3.6 2.8 6.4 6.4 6.4h63.2c3.6 0 6.4-2.8 6.4-6.4 0-3.6-2.8-6.4-6.4-6.4z"/></svg>