<svg xmlns="http://www.w3.org/2000/svg" viewBox="0 0 289.092 289.092"><path d="M287.933 235.514c-1.2-6.4-4.4-13.2-9.6-18.8l-.4-.4-60.4-60c4-4.4 6.4-10 6.4-15.6 0-6-2.4-11.6-6.8-16.4-4.4-4.4-10.4-6.8-16.4-6.8s-11.6 2.4-16.4 6.8l-14.8 14.8-105.2-105.6c2.4-2.4 2.4-6.4 0-8.8l-13.2-13.2c-.8-.8-1.6-1.2-2.4-1.6l-31.6-9.6c-2-.8-4.8 0-6.4 1.6l-4 4-4 4c-1.6 1.6-2.4 4-1.6 6.4l9.6 31.2c.4 1.2.8 2 1.6 2.8l13.2 13.2c2.4 2.4 6.4 2.4 8.8 0l105.6 105.6-16.4 16.4c-4.4 4.4-6.8 10.4-6.8 16.4s2.4 11.6 6.8 16.4c4.4 4.4 10.4 6.8 16.4 6.8 5.6 0 11.2-2 15.6-6.4l60 60c5.6 5.6 12.4 9.2 19.2 10 7.2 1.2 14.4-.4 19.2-5.6l28.4-28.4c4.8-4.8 6.8-12 5.6-19.2zm-249.2-185.6c-2.4-2.4-6.4-2.4-8.8 0l-7.6-7.6-8-26 1.2-1.6 1.2-1.2 26.4 8.4 7.6 7.6c-2.4 2.4-2.4 6.4 0 8.8l110 110-12 12-110-110.4zm112.4 154.8l-4 4c-2 2-4.8 2.8-7.2 2.8-2.8 0-5.2-1.2-7.2-3.2s-3.2-4.8-3.2-7.2c0-2.8 1.2-5.2 3.2-7.2l60.8-60.8c2-2 4.8-3.2 7.2-3.2 2.8 0 5.2.8 7.2 2.8s3.2 4.8 3.2 7.2c0 2.4-.8 5.2-2.8 7.2v.8l-4 4-53.2 52.8zm121.6 40.8l-28.4 28.4c-2 2-4.8 2.4-8.4 2-4-.8-8.4-2.8-12-6.4l-59.2-60 44.4-44.4 59.2 60c4 4 6 8 6.4 12 .4 3.2 0 6.4-2 8.4z"/></svg>