<svg xmlns="http://www.w3.org/2000/svg" viewBox="0 0 296.8 296.8"><path d="M290.4 112.4h-28.8l-3.6-9.6c-1.2-3.2-2.8-6.4-4.4-9.2L274 73.2c2.4-2.4 2.4-6.4 0-8.8l-41.6-41.6c-2.4-2.4-6.4-2.4-8.8 0l-20.4 20.4c-3.2-1.6-6-3.2-9.2-4.4l-9.6-3.6V6.4c0-3.6-2.8-6.4-6.4-6.4h-59.2c-3.6 0-6.4 2.8-6.4 6.4v28.8l-9.6 3.6c-3.2 1.2-6.4 2.8-9.2 4.4L73.2 22.8c-2.4-2.4-6.4-2.4-8.8 0L22.8 64.4c-2.4 2.4-2.4 6.4 0 8.8l20.4 20.4c-1.6 3.2-3.2 6-4.4 9.2l-3.6 9.6H6.4c-3.6 0-6.4 2.8-6.4 6.4v58.8c0 3.6 2.8 6.4 6.4 6.4h28.8l3.6 9.6c1.2 3.2 2.8 6.4 4.4 9.2l-20.4 20.4c-2.4 2.4-2.4 6.4 0 8.8l41.6 42c2.4 2.4 6.4 2.4 8.8 0l20.4-20.4c3.2 1.6 6 3.2 9.2 4.4l9.6 3.6v28.8c0 3.6 2.8 6.4 6.4 6.4h58.8c3.6 0 6.4-2.8 6.4-6.4v-28.8l9.6-3.6c3.2-1.2 6.4-2.8 9.2-4.4l20.4 20.4c2.4 2.4 6.4 2.4 8.8 0l42-41.6c2.4-2.4 2.4-6.4 0-8.8l-20.4-20.4c1.6-3.2 3.2-6 4.4-9.2l3.6-9.6h28.8c3.6 0 6.4-2.8 6.4-6.4v-59.2c0-3.2-2.8-6.4-6.4-6.4zm-6 59.2h-27.6c-3.2 0-5.6 2-6.4 5.2-1.2 4.4-2.8 8.4-4.4 12.4-1.6 4.4-3.6 8.4-6 12-1.6 2.4-.8 5.6 1.2 7.6l19.2 19.2-32.8 32.8-19.2-19.2c-2-2-5.6-2.4-8-.8-4 2.4-8 4-12 6-4 1.6-8.4 3.2-12.8 4.4-2.8.8-4.8 3.2-4.8 6v27.2h-45.6v-27.2c0-3.2-2-5.6-5.2-6.4-4.4-1.2-8.4-2.8-12.4-4.4-4.4-1.6-8.4-3.6-12-6-2.4-1.6-5.6-.8-7.6 1.2l-19.2 19.2L36 228l19.2-19.2c2-2 2.4-5.6.8-8-2.4-4-4-8-6-12-1.6-4-3.2-8.4-4.4-12.8-.8-2.8-3.2-4.8-6-4.8H12.4v-46h27.2c3.2 0 5.6-2 6.4-5.2 1.2-4.4 2.8-8.4 4.4-12.4 1.6-4.4 3.6-8.4 6-12 1.6-2.4.8-5.6-1.2-7.6L36 68.8 68.8 36 88 55.2c2 2 5.6 2.4 8 .8 4-2.4 8-4 12-6 4-1.6 8.4-3.2 12.8-4.4 2.8-.8 4.8-3.2 4.8-6V12.4H172v27.2c0 3.2 2 5.6 5.2 6.4 4.4 1.2 8.4 2.8 12.4 4.4 4.4 1.6 8.4 3.6 12 6 2.4 1.6 5.6.8 7.6-1.2L228.4 36l32.8 32.8L242 88c-2.4 2.4-2.4 5.6-.8 8 2 3.6 4 7.6 5.6 11.6 1.6 4 3.2 8.4 4.4 12.8.8 2.8 3.2 4.8 6 4.8h27.2v46.4z"/><path d="M148.4 83.2c-18 0-34.4 7.2-46 19.2-12 12-19.2 28-19.2 46s7.2 34.4 19.2 46c12 12 28 19.2 46 19.2s34.4-7.2 46-19.2c12-12 19.2-28 19.2-46s-7.2-34.4-19.2-46c-11.6-12-28-19.2-46-19.2zm37.2 102.4c-9.6 9.6-22.8 15.6-37.2 15.6-14.4 0-27.6-6-37.2-15.6-9.6-9.6-15.6-22.8-15.6-37.2s6-27.6 15.6-37.2c9.6-9.6 22.8-15.6 37.2-15.6 14.4 0 27.6 6 37.2 15.6 9.6 9.6 15.6 22.8 15.6 37.2 0 14.4-6 27.6-15.6 37.2z"/></svg>